<?xml version="1.0" standalone="no"?>
<!DOCTYPE svg PUBLIC "-//W3C//DTD SVG 20010904//EN"
 "http://www.w3.org/TR/2001/REC-SVG-20010904/DTD/svg10.dtd">
<svg version="1.0" xmlns="http://www.w3.org/2000/svg"
 width="512.000000pt" height="512.000000pt" viewBox="0 0 512.000000 512.000000"
 preserveAspectRatio="xMidYMid meet">
<metadata>
Created by potrace 1.14, written by Peter Selinger 2001-2017
</metadata>
<g transform="translate(0.000000,512.000000) scale(0.100000,-0.100000)"
fill="#000000" stroke="none">
<path d="M2492 4623 c-18 -9 -44 -30 -56 -47 -13 -17 -98 -233 -191 -481 -92
-247 -171 -454 -175 -458 -4 -5 -225 128 -491 295 l-484 303 -57 0 c-94 0
-153 -59 -153 -153 l0 -57 303 -483 c167 -266 301 -487 297 -490 -3 -4 -212
-84 -463 -178 -398 -149 -462 -176 -494 -207 -64 -62 -64 -152 0 -214 32 -32
94 -57 492 -205 250 -93 459 -173 464 -178 5 -5 -118 -211 -285 -476 -161
-258 -300 -487 -308 -510 -17 -48 -6 -102 29 -147 27 -35 100 -61 144 -53 20
4 236 132 516 307 265 166 485 297 490 293 5 -5 81 -202 170 -439 89 -236 170
-449 181 -472 26 -55 78 -87 139 -87 51 0 106 28 129 65 7 13 91 228 185 479
94 251 173 459 176 461 3 2 222 -131 485 -295 456 -284 483 -299 535 -303 100
-7 164 57 157 157 -3 52 -18 79 -304 537 l-301 482 101 39 c56 22 268 101 470
177 398 149 417 159 437 235 17 64 -12 140 -67 171 -15 9 -228 92 -473 184
-245 92 -449 170 -454 175 -4 5 127 225 293 490 175 280 303 496 307 516 8 44
-18 117 -53 144 -45 35 -99 46 -147 29 -23 -8 -252 -147 -510 -308 -259 -163
-471 -290 -475 -285 -5 5 -84 212 -176 459 -93 248 -178 464 -191 481 -44 60
-126 80 -192 47z m218 -995 c225 -603 238 -635 270 -661 16 -14 236 -102 534
-213 278 -104 506 -191 506 -194 0 -3 -228 -91 -507 -195 -410 -153 -514 -195
-539 -220 -25 -24 -65 -122 -220 -537 -104 -279 -191 -508 -194 -508 -3 0 -90
228 -194 506 -104 277 -198 516 -208 530 -11 13 -36 33 -56 43 -21 10 -252 98
-514 196 -263 98 -478 181 -478 185 0 4 221 89 491 190 269 101 503 192 520
202 16 10 37 31 47 47 10 17 101 251 202 520 101 270 186 491 190 491 4 0 71
-172 150 -382z"/>
</g>
</svg>
